<mxfile host="app.diagrams.net" modified="2024-10-14T16:42:50.790Z" agent="Mozilla/5.0 (Windows NT 10.0; Win64; x64) AppleWebKit/537.36 (KHTML, like Gecko) Chrome/129.0.0.0 Safari/537.36" version="24.7.2" etag="CbS4aDdT-f6X-u83xFLo" type="github">
  <diagram name="Page-1" id="jvvVoU0R1dmQOzkFDzb8">
    <mxGraphModel>
      <root>
        <mxCell id="0" />
        <mxCell id="1" parent="0" />
      </root>
    </mxGraphModel>
  </diagram>
</mxfile>
